# xmcd CD database file
#
# Track frame offsets:
#	150
#	17453
#	31059
#	41447
#	56410
#	68141
#	82708
#	96036
#	111838
#	124165
#	135597
#	149506
#	166330
#	175231
#	195237
#	213132
#
# Disc length: 3036 seconds
#
# Revision: 0
# Processed by: cddbd v1.5.2PL0 Copyright (c) Steve Scherf et al.
# Submitted via: CDex 1.51
#
DISCID=c60bda10
DTITLE=Edwin Kimmler - Outlaw
DYEAR=2013
DGENRE=Blues
TTITLE0=Jam
TTITLE1=Moon's Going Down
TTITLE2=Tales From Hawaii
TTITLE3=Life
TTITLE4=Somebody's Watching You All The Time
TTITLE5=Butterfly
TTITLE6=Nothing From Nothing
TTITLE7=Boogie Tonight
TTITLE8=Maggie's Dance
TTITLE9=Zombie Jamboree
TTITLE10=Take Me Back to Savannah
TTITLE11=Tequilla
TTITLE12=12-String Runner
TTITLE13=Shame, Shame, Shame
TTITLE14=Boogie On Hastings Street
TTITLE15=Memories
EXTD=YEAR: 2013
EXTT0=
EXTT1=
EXTT2=
EXTT3=
EXTT4=
EXTT5=
EXTT6=
EXTT7=
EXTT8=
EXTT9=
EXTT10=
EXTT11=
EXTT12=
EXTT13=
EXTT14=
EXTT15=
PLAYORDER=
